:SAMPLES-PER-SECOND 30
:FRAME-RANGE 1-1086
:FULLY-SPECIFIED
:DEGREES
849
root  45.0933 39.2472 -75.4392 -179.129 -3.91916 -178.889
RightUpLeg  -16.8868 -8.65422 -2.85408
RightLeg  15.0701 -5.6957 -0.869609
RightFoot  0.791661 -0.596602 5.65918
RightToes  -5.8209e-011 0 -3.6325e-017
Spine  6.53715 -1.08911 2.00742
Spine1  0.709036 -0.643124 -1.0893
HEad  -3.16058 16.275 -7.00222
LeftShoulder1  2.02095 -2.31395 -28.6708
LeftArm  9.20252 -7.96566 -32.6784
LeftForeArm  -2.20696 -67.6518 -29.8723
LeftHand  -0.577979 9.23425 -15.0225
RightShoulder  5.52763 10.3333 34.0321
RightArm  0.301666 0.650611 6.78638
RightForeArm  -14.8744 67.5736 31.1721
RightHand  -0.182465 -6.05413 21.7549
LeftUpLeg  2.69129 12.3518 11.8583
LeftLeg  22.2362 0.210572 0.42593
LeftFoot  -13.0846 -0.181777 -16.9653
LeftToes  5.72949e-011 5.22586e-011 2.45399e-011
850
root  45.517 39.2042 -76.113 -179.246 -4.97935 -178.558
RightUpLeg  -16.433 -8.85869 -2.13288
RightLeg  17.0019 -6.37075 -1.1081
RightFoot  -1.41672 -0.487132 5.49399
RightToes  -5.8209e-011 0 -3.6325e-017
Spine  6.86948 -1.17755 3.69717
Spine1  0.590122 -0.48619 -1.0944
HEad  -2.08503 15.515 -6.16911
LeftShoulder1  2.00851 -2.29425 -28.5719
LeftArm  8.56469 -5.98139 -32.2403
LeftForeArm  -0.780458 -68.3899 -31.0692
LeftHand  -0.585511 9.33037 -14.8622
RightShoulder  5.62565 10.4116 34.5066
RightArm  0.556277 0.933026 7.01132
RightForeArm  -14.4314 67.6199 31.214
RightHand  -0.183832 -6.05739 21.8563
LeftUpLeg  -0.655595 10.9036 13.0257
LeftLeg  29.1385 1.42954 1.20326
LeftFoot  -9.32203 0.396668 -19.2001
LeftToes  5.72949e-011 5.22586e-011 2.45399e-011
851
root  45.87 39.1651 -76.7258 -179.301 -6.35384 -178.382
RightUpLeg  -15.8752 -9.51616 -1.75056
RightLeg  18.4976 -7.00887 -1.16587
RightFoot  -3.46759 -0.406674 5.56052
RightToes  -5.8209e-011 0 -3.6325e-017
Spine  7.19943 -1.2492 5.19139
Spine1  0.632505 -0.355993 -0.999792
HEad  -1.44136 14.3226 -5.48341
LeftShoulder1  2.00232 -2.31305 -28.3484
LeftArm  8.20597 -4.86523 -32.1942
LeftForeArm  0.294826 -68.9195 -31.9888
LeftHand  -0.588742 9.32141 -14.8574
RightShoulder  5.68747 10.539 34.5782
RightArm  0.569196 1.05727 7.01877
RightForeArm  -13.9594 67.659 31.2397
RightHand  -0.178449 -6.02432 22.0373
LeftUpLeg  -4.95014 9.05866 13.2978
LeftLeg  36.2156 3.09726 2.79206
LeftFoot  -2.92466 1.07117 -14.2604
LeftToes  5.72949e-011 5.22586e-011 2.45399e-011
852
root  46.1429 39.1055 -77.2715 -179.262 -7.7675 -178.213
RightUpLeg  -15.4405 -10.1717 -1.57236
RightLeg  19.8408 -7.74006 -1.05854
RightFoot  -5.35015 -0.335609 5.7114
RightToes  -5.8209e-011 0 -3.6325e-017
Spine  7.6053 -1.21458 6.56705
Spine1  0.550198 -0.206524 -0.519793
HEad  -1.01397 12.9164 -5.16291
LeftShoulder1  2.00211 -2.30631 -28.434
LeftArm  8.13272 -4.55202 -32.2508
LeftForeArm  1.19352 -69.251 -32.5645
LeftHand  -0.590057 9.35496 -14.894
RightShoulder  5.66512 10.6157 34.203
RightArm  0.510017 1.16193 7.01048
RightForeArm  -13.8229 67.677 31.2595
RightHand  -0.185418 -6.04984 22.2978
LeftUpLeg  -9.33216 7.52023 13.157
LeftLeg  42.5396 4.5932 4.88294
LeftFoot  0.130019 1.0356 -10.299
LeftToes  5.72949e-011 5.22586e-011 2.45399e-011
853
root  46.4299 39.1705 -77.8366 -179.153 -8.81299 -178.446
RightUpLeg  -14.4065 -10.2116 -1.70157
RightLeg  19.8591 -8.72863 -0.94849
RightFoot  -6.47148 -0.286162 5.68825
RightToes  -5.8209e-011 0 -3.6325e-017
Spine  8.02738 -0.966134 7.16822
Spine1  0.207505 0.107002 -0.560285
HEad  -0.459282 11.645 -4.68643
LeftShoulder1  2.00452 -2.31377 -28.4295
LeftArm  8.20051 -4.60456 -32.4772
LeftForeArm  1.50044 -69.324 -32.6789
LeftHand  -0.581428 9.30791 -14.8348
RightShoulder  5.67617 10.6518 34.1785
RightArm  0.506587 1.51427 6.76305
RightForeArm  -14.1961 67.4926 30.9586
RightHand  -0.176098 -6.00406 22.2998
LeftUpLeg  -13.2288 7.59758 12.4253
LeftLeg  47.3598 4.05676 5.11786
LeftFoot  -0.619244 0.848974 -8.99549
LeftToes  5.72949e-011 5.22586e-011 2.45399e-011
854
root  46.6706 39.2594 -78.4122 -178.916 -9.65106 -178.85
RightUpLeg  -13.2749 -10.1381 -2.05099
RightLeg  19.4376 -9.59689 -0.679984
RightFoot  -7.3775 -0.251869 5.82217
RightToes  -5.8209e-011 0 -3.6325e-017
Spine  8.1568 -0.69483 7.5781
Spine1  -0.0539679 0.40914 -0.82517
HEad  0.0483412 10.6339 -4.28575
LeftShoulder1  2.00835 -2.26463 -28.6274
LeftArm  8.43225 -4.91457 -32.4282
LeftForeArm  1.10675 -69.069 -32.1885
LeftHand  -0.56174 9.19761 -14.7059
RightShoulder  5.78716 10.9119 34.2224
RightArm  0.236311 1.76826 6.68669
RightForeArm  -14.703 67.1492 30.3968
RightHand  -0.170534 -5.97378 22.3964
LeftUpLeg  -16.7828 8.48982 11.0177
LeftLeg  50.3584 3.03483 4.35805
LeftFoot  -2.00123 0.740124 -8.90182
LeftToes  5.72949e-011 5.22586e-011 2.45399e-011
855
root  46.8747 39.3602 -78.9981 -178.599 -10.6369 -179.216
RightUpLeg  -11.9592 -10.0434 -2.48292
RightLeg  18.5733 -10.6585 -0.198921
RightFoot  -8.08564 -0.225213 5.98328
RightToes  -5.8209e-011 0 -3.6325e-017
Spine  8.00661 -0.525005 7.78083
Spine1  -0.203177 0.507564 -0.949793
HEad  0.696877 9.76345 -4.17027
LeftShoulder1  2.0124 -2.21115 -28.9166
LeftArm  8.47259 -5.27474 -32.3141
LeftForeArm  0.260917 -68.5519 -31.2483
LeftHand  -0.546934 9.13073 -14.5411
RightShoulder  5.89334 11.2581 33.9986
RightArm  -0.0688601 1.90188 7.09102
RightForeArm  -14.9477 66.9028 29.9953
RightHand  -0.172313 -5.98168 22.4214
LeftUpLeg  -20.1345 9.84895 9.22997
LeftLeg  51.7706 2.20933 3.4574
LeftFoot  -3.86155 0.615692 -9.05253
LeftToes  5.72949e-011 5.22586e-011 2.45399e-011
856
root  47.0569 39.4577 -79.5873 -178.291 -11.7369 -179.542
RightUpLeg  -10.5837 -9.9838 -2.79073
RightLeg  17.5926 -11.696 0.208611
RightFoot  -8.70375 -0.196112 5.94173
RightToes  -5.8209e-011 0 -3.6325e-017
Spine  7.7592 -0.34638 7.63543
Spine1  -0.295816 0.506452 -0.773141
HEad  1.36388 8.87351 -4.27398
LeftShoulder1  2.01548 -2.19863 -29.1515
LeftArm  8.49891 -5.64878 -32.2249
LeftForeArm  -0.723432 -68.0003 -30.3199
LeftHand  -0.536359 8.9731 -14.8621
RightShoulder  5.98941 11.5195 33.9414
RightArm  -0.231813 2.29525 7.08471
RightForeArm  -15.0154 66.7093 29.6757
RightHand  -0.152035 -5.88352 22.3929
LeftUpLeg  -23.0724 11.4142 7.1277
LeftLeg  51.6817 2.03205 3.20695
LeftFoot  -5.17684 0.479471 -8.31889
LeftToes  5.72949e-011 5.22586e-011 2.45399e-011
857
root  47.2111 39.5673 -80.1846 -177.989 -12.8027 -179.926
RightUpLeg  -9.02687 -10.0467 -3.11994
RightLeg  16.2761 -12.6583 0.65099
RightFoot  -9.18927 -0.174745 5.97119
RightToes  -5.8209e-011 0 -3.6325e-017
Spine  7.51522 -0.192507 7.39053
Spine1  -0.493047 0.524096 -0.950362
HEad  1.98801 8.02816 -4.3149
LeftShoulder1  2.01637 -2.21895 -29.1772
LeftArm  8.57634 -5.95235 -32.1792
LeftForeArm  -1.62881 -67.4305 -29.408
LeftHand  -0.518411 8.78224 -15.1255
RightShoulder  6.05879 11.6983 33.9275
RightArm  -0.315612 2.57839 7.20729
RightForeArm  -15.1252 66.5947 29.4962
RightHand  -0.154558 -5.90108 22.2032
LeftUpLeg  -25.4555 13.0642 4.76606
LeftLeg  49.9561 2.57086 3.71047
LeftFoot  -6.36404 0.429128 -8.98434
LeftToes  5.72949e-011 5.22586e-011 2.45399e-011
858
root  47.3471 39.6696 -80.7877 -177.677 -13.8585 179.843
RightUpLeg  -7.46504 -9.87714 -3.16322
RightLeg  14.7992 -13.8506 0.942957
RightFoot  -9.4895 -0.160079 5.90749
RightToes  -5.8209e-011 0 -3.6325e-017
Spine  7.21563 -0.0349752 7.02837
Spine1  -0.624526 0.539352 -1.05654
HEad  2.6064 7.26214 -4.31385
LeftShoulder1  2.01284 -2.24253 -28.9671
LeftArm  8.67083 -6.25622 -32.1737
LeftForeArm  -2.14299 -67.0336 -28.7924
LeftHand  -0.499952 8.69931 -14.9021
RightShoulder  6.11173 11.7592 34.1131
RightArm  -0.111268 2.83446 7.14151
RightForeArm  -15.0401 66.7642 29.7699
RightHand  -0.170323 -5.98849 21.8967
LeftUpLeg  -27.2707 14.917 2.47732
LeftLeg  46.84 2.41599 3.16832
LeftFoot  -7.06828 0.3587 -8.47031
LeftToes  5.72949e-011 5.22586e-011 2.45399e-011
859
root  47.4517 39.7782 -81.3875 -177.421 -14.9038 179.64
RightUpLeg  -5.7598 -9.70462 -3.09944
RightLeg  13.0603 -15.169 1.18997
RightFoot  -9.57646 -0.152886 5.69468
RightToes  -5.8209e-011 0 -3.6325e-017
Spine  6.89084 0.0699674 6.47692
Spine1  -0.658829 0.49879 -1.04938
HEad  3.11133 6.58172 -4.29065
LeftShoulder1  2.00299 -2.20335 -29.0361
LeftArm  8.723 -6.74736 -31.8416
LeftForeArm  -2.86035 -66.6211 -28.2023
LeftHand  -0.489483 8.61422 -14.944
RightShoulder  6.2456 11.9642 34.4431
RightArm  -0.203687 3.16333 7.21694
RightForeArm  -15.4257 66.4399 29.2709
RightHand  -0.163911 -5.95868 21.8248
LeftUpLeg  -28.3299 16.9313 0.0620503
LeftLeg  42.1165 1.97828 2.2982
LeftFoot  -7.50584 0.320949 -8.23394
LeftToes  5.72949e-011 5.22586e-011 2.45399e-011
860
root  47.5094 39.8758 -81.9934 -177.077 -15.9058 179.498
RightUpLeg  -3.97369 -9.5674 -3.06615
RightLeg  10.9214 -16.2868 1.76514
RightFoot  -9.55936 -0.150475 5.49332
RightToes  -5.8209e-011 0 -3.6325e-017
Spine  6.36014 0.187552 5.99528
Spine1  -0.538118 0.542403 -1.26025
HEad  3.72072 5.95431 -4.1359
LeftShoulder1  2.00638 -2.23175 -28.9193
LeftArm  8.67998 -7.22279 -31.7852
LeftForeArm  -3.5767 -66.0311 -27.3662
LeftHand  -0.471017 8.45058 -15.0891
RightShoulder  6.34484 12.0453 34.865
RightArm  -0.40024 3.43418 7.37823
RightForeArm  -15.6933 65.9925 28.586
RightHand  -0.138267 -5.82508 22.0288
LeftUpLeg  -28.6973 19.0702 -2.3473
LeftLeg  35.9263 1.21096 1.29961
LeftFoot  -7.57036 0.320487 -8.34892
LeftToes  5.72949e-011 5.22586e-011 2.45399e-011
861
root  47.5453 39.952 -82.6132 -176.776 -16.8089 179.574
RightUpLeg  -2.1452 -9.22783 -2.76935
RightLeg  8.62041 -17.5291 2.4326
RightFoot  -9.44314 -0.153341 5.37763
RightToes  -5.8209e-011 0 -3.6325e-017
Spine  5.89124 0.306816 5.35313
Spine1  -0.472848 0.568802 -1.16078
HEad  4.27436 5.49798 -3.95163
LeftShoulder1  1.98476 -2.18032 -28.8535
LeftArm  8.63371 -7.53436 -31.6596
LeftForeArm  -4.2492 -65.6926 -26.9383
LeftHand  -0.471671 8.44456 -15.1415
RightShoulder  6.43432 12.1086 35.266
RightArm  -0.225478 3.5067 7.39293
RightForeArm  -15.7789 65.9771 28.5699
RightHand  -0.136185 -5.82202 21.7311
LeftUpLeg  -28.3266 20.6782 -4.25346
LeftLeg  28.6133 0.982973 0.918307
LeftFoot  -6.94303 0.359537 -8.27064
LeftToes  5.72949e-011 5.22586e-011 2.45399e-011
862
root  47.5425 39.9928 -83.2452 -176.521 -17.5601 179.789
RightUpLeg  -0.475301 -8.71026 -2.27083
RightLeg  6.59758 -18.6851 2.98025
RightFoot  -9.43972 -0.150083 5.17388
RightToes  -5.8209e-011 0 -3.6325e-017
Spine  5.38944 0.403206 4.83013
Spine1  -0.337568 0.637296 -1.19133
HEad  4.44367 5.20246 -3.75112
LeftShoulder1  1.96906 -2.17136 -28.6268
LeftArm  8.46967 -7.66219 -31.5661
LeftForeArm  -4.56378 -65.3502 -26.4796
LeftHand  -0.44947 8.28476 -15.1469
RightShoulder  6.52953 12.1577 35.7361
RightArm  -0.231018 3.66277 7.59114
RightForeArm  -16.1436 65.7383 28.2373
RightHand  -0.119733 -5.73901 21.7399
LeftUpLeg  -27.4296 22.0725 -5.79569
LeftLeg  20.7787 2.34775 1.31009
LeftFoot  -5.48992 0.45786 -8.30586
LeftToes  5.72949e-011 5.22586e-011 2.45399e-011
863
root  47.4728 39.9734 -83.9211 -176.44 -18.248 -179.87
RightUpLeg  1.10117 -8.28601 -1.76981
RightLeg  5.28609 -19.6714 3.39244
RightFoot  -9.84143 -0.137434 5.38584
RightToes  -5.8209e-011 0 -3.6325e-017
Spine  4.91996 0.44353 4.4038
Spine1  -0.0937035 0.680317 -1.22384
HEad  4.52022 5.06149 -3.54367
LeftShoulder1  1.95091 -2.15175 -28.4214
LeftArm  8.24478 -7.74115 -31.4026
LeftForeArm  -4.92266 -65.0286 -26.0695
LeftHand  -0.44597 8.27737 -15.0554
RightShoulder  6.67582 12.2692 36.3543
RightArm  -0.188211 3.70015 7.60167
RightForeArm  -16.0032 65.6338 28.0674
RightHand  -0.0978245 -5.63204 21.5339
LeftUpLeg  -25.7422 21.8449 -5.83029
LeftLeg  13.7624 6.19064 0.619495
LeftFoot  -4.21742 0.537283 -8.21637
LeftToes  5.72949e-011 5.22586e-011 2.45399e-011
